<?xml version="1.0" standalone="no"?>
<!DOCTYPE svg PUBLIC "-//W3C//DTD SVG 20010904//EN"
 "http://www.w3.org/TR/2001/REC-SVG-20010904/DTD/svg10.dtd">
<svg version="1.0" xmlns="http://www.w3.org/2000/svg"
 width="512.000000pt" height="512.000000pt" viewBox="0 0 512.000000 512.000000"
 preserveAspectRatio="xMidYMid meet">
<metadata>
Created by potrace 1.11, written by Peter Selinger 2001-2013
</metadata>
<g transform="translate(0.000000,512.000000) scale(0.100000,-0.100000)"
fill="#000000" stroke="none">
<path d="M1550 4920 c-25 -4 -63 -10 -85 -13 -22 -3 -76 -15 -119 -27 -536
-148 -948 -567 -1085 -1105 -88 -344 -48 -716 109 -1035 229 -465 658 -774
1175 -846 65 -9 274 -11 351 -3 769 78 1362 729 1366 1499 1 114 -6 213 -17
265 -3 11 -7 31 -9 45 -30 187 -171 499 -280 624 -15 16 -26 32 -26 36 0 15
-196 204 -268 258 -217 164 -438 257 -707 297 -95 14 -329 17 -405 5z"/>
<path d="M3255 1894 c-44 -6 -102 -19 -130 -28 -163 -56 -918 -331 -961 -351
-116 -54 -169 -133 -169 -255 1 -119 53 -210 152 -260 42 -22 61 -25 148 -25
88 1 285 11 385 20 19 2 89 6 155 10 238 12 268 18 295 55 24 34 25 78 2 106
-36 45 -36 45 -292 29 -212 -13 -247 -16 -305 -20 -33 -2 -113 -7 -177 -11
l-117 -6 -31 30 c-22 22 -30 40 -30 66 0 67 13 74 435 226 215 78 431 156 481
175 128 47 222 63 362 60 229 -5 324 -33 639 -189 l252 -125 -31 -73 c-17 -40
-60 -140 -95 -223 -36 -82 -66 -154 -67 -160 -2 -5 -12 -30 -23 -55 -11 -25
-30 -69 -43 -97 -12 -29 -24 -53 -25 -53 -2 0 -31 13 -66 30 -79 36 -152 51
-244 49 -89 -2 -138 -15 -530 -134 -176 -53 -340 -103 -365 -110 -25 -7 -137
-41 -250 -75 -173 -53 -219 -63 -295 -66 -133 -5 -193 15 -420 139 -44 24
-125 67 -180 97 -55 29 -116 62 -135 73 -62 35 -113 63 -205 112 -49 26 -112
60 -140 75 -27 15 -79 43 -115 62 -36 20 -117 63 -180 98 -63 34 -144 78 -180
98 -36 19 -90 48 -120 65 -126 68 -159 86 -235 127 -44 23 -100 54 -125 67
-69 37 -93 69 -86 112 7 45 48 81 85 75 14 -3 345 -111 734 -241 690 -229 709
-235 743 -222 48 19 69 55 60 103 -9 50 -36 65 -226 127 -85 27 -164 54 -175
59 -11 5 -261 88 -554 186 -600 199 -604 199 -705 150 -170 -83 -206 -329 -66
-448 31 -27 262 -157 550 -311 30 -16 73 -40 95 -52 22 -13 69 -38 105 -57 68
-36 134 -72 310 -168 58 -32 211 -115 340 -185 129 -70 297 -161 372 -202 139
-76 242 -115 333 -128 58 -8 163 -8 197 0 13 2 34 7 48 9 14 3 34 7 45 10 20
4 358 105 915 273 311 94 377 105 472 77 57 -17 102 -44 423 -247 272 -173
279 -177 313 -177 58 0 72 22 220 340 16 36 53 115 82 175 28 61 64 137 80
170 15 33 49 105 75 160 56 116 64 160 36 193 -11 12 -226 124 -478 248 -252
124 -512 252 -578 286 -161 80 -264 112 -435 133 -95 12 -272 12 -355 -1z
m1460 -674 l185 -90 -24 -53 c-13 -28 -48 -104 -78 -167 -30 -63 -94 -199
-143 -302 -56 -119 -92 -185 -99 -181 -171 103 -320 207 -318 220 2 9 14 39
26 67 13 28 74 173 137 323 63 150 118 273 122 273 4 0 91 -41 192 -90z"/>
</g>
</svg>
