<?xml version="1.0" standalone="no"?>
<!DOCTYPE svg PUBLIC "-//W3C//DTD SVG 20010904//EN"
 "http://www.w3.org/TR/2001/REC-SVG-20010904/DTD/svg10.dtd">
<svg version="1.0" xmlns="http://www.w3.org/2000/svg"
 width="512.000000pt" height="512.000000pt" viewBox="0 0 512.000000 512.000000"
 preserveAspectRatio="xMidYMid meet">
<metadata>
Created by potrace 1.11, written by Peter Selinger 2001-2013
</metadata>
<g transform="translate(0.000000,512.000000) scale(0.100000,-0.100000)"
fill="#000000" stroke="none">
<path d="M2379 5116 c-2 -2 -40 -6 -83 -10 -44 -4 -82 -8 -85 -10 -3 -2 -31
-7 -61 -11 -210 -26 -493 -117 -733 -235 -788 -392 -1319 -1166 -1404 -2050
-10 -96 -10 -370 0 -480 37 -434 206 -887 467 -1250 38 -52 77 -104 87 -115
48 -53 48 -48 2 -132 -100 -187 -230 -330 -380 -420 -46 -28 -94 -65 -107 -82
-30 -40 -40 -96 -29 -151 19 -90 88 -143 202 -155 62 -7 259 -7 307 0 255 34
479 118 685 257 l73 48 89 -45 c189 -95 450 -187 617 -219 200 -38 296 -48
509 -51 213 -2 360 11 543 49 894 189 1611 823 1905 1687 34 98 64 203 73 259
3 14 9 41 14 60 10 43 28 168 39 275 11 109 6 431 -8 535 -58 421 -189 777
-412 1110 -125 188 -298 384 -454 515 -33 28 -62 52 -65 55 -16 18 -139 107
-225 162 -170 110 -350 198 -535 263 -102 35 -299 88 -370 99 -19 3 -46 8 -60
11 -14 3 -47 8 -75 11 -27 3 -61 8 -75 11 -26 6 -445 14 -451 9z m451 -202
c63 -7 124 -16 136 -18 12 -3 38 -8 59 -12 61 -9 272 -70 370 -105 124 -45
350 -161 470 -241 354 -237 629 -548 819 -927 83 -164 182 -461 202 -601 2
-19 7 -46 10 -60 21 -93 31 -253 29 -430 -3 -151 -8 -217 -30 -350 -2 -14 -6
-41 -9 -60 -15 -103 -93 -357 -143 -470 -57 -129 -132 -270 -194 -364 -394
-606 -1043 -1002 -1760 -1073 -95 -9 -351 -9 -454 0 -89 8 -238 32 -300 49
-22 5 -47 11 -55 13 -36 7 -107 27 -125 35 -11 5 -45 16 -75 26 -77 23 -237
93 -353 155 -75 39 -106 50 -127 46 -15 -3 -68 -35 -118 -70 -201 -143 -409
-224 -642 -252 -61 -8 -234 -8 -265 -1 -11 2 -24 5 -30 5 -5 1 17 17 50 37 89
54 132 89 219 178 91 94 186 232 250 365 65 134 64 145 -34 266 -300 372 -476
790 -527 1258 -16 144 -9 457 13 597 127 810 641 1487 1374 1813 234 104 447
161 730 195 103 13 385 11 510 -4z"/>
<path d="M2353 4485 c-30 -13 -54 -43 -59 -73 -4 -21 -9 -23 -77 -36 l-65 -12
-30 33 c-23 26 -37 33 -66 33 -49 0 -96 -44 -96 -89 0 -33 -6 -38 -86 -66
l-50 -18 -29 27 c-39 36 -84 35 -123 -4 -26 -25 -30 -37 -28 -71 3 -39 2 -41
-58 -79 -58 -37 -62 -38 -79 -22 -25 22 -98 23 -120 0 -33 -32 -40 -74 -22
-119 9 -24 -93 -112 -120 -103 -11 4 -37 7 -59 8 -70 0 -105 -67 -71 -135 16
-29 15 -31 -30 -89 -39 -51 -49 -59 -65 -50 -29 16 -78 0 -104 -32 -29 -38
-25 -90 11 -126 10 -10 6 -25 -19 -77 -30 -61 -35 -65 -66 -65 -44 0 -68 -14
-88 -51 -19 -38 -12 -74 22 -110 l26 -27 -19 -68 c-17 -63 -20 -68 -48 -71
-39 -5 -85 -54 -85 -92 0 -32 43 -91 65 -91 10 0 12 -14 9 -57 -8 -91 -12
-103 -35 -103 -31 0 -69 -47 -69 -87 0 -19 5 -43 10 -54 12 -21 64 -52 73 -42
10 9 15 -15 20 -87 5 -64 4 -65 -26 -85 -63 -40 -57 -133 10 -161 18 -8 38
-13 45 -12 7 2 19 -23 29 -59 9 -34 20 -66 23 -72 4 -5 -3 -15 -15 -21 -11 -7
-27 -27 -35 -46 -12 -29 -12 -39 0 -68 17 -40 42 -56 88 -56 32 0 36 -4 67
-66 21 -43 29 -69 22 -73 -5 -4 -17 -22 -25 -41 -12 -31 -12 -40 1 -71 19 -50
82 -75 122 -50 10 7 25 -6 58 -51 l44 -60 -16 -34 c-22 -46 -6 -98 36 -119 29
-15 71 -16 85 -2 17 16 43 4 89 -43 43 -43 47 -52 38 -72 -39 -86 76 -167 147
-103 13 12 24 9 78 -23 46 -27 62 -42 61 -57 -3 -45 2 -65 24 -91 32 -36 95
-39 131 -5 l25 24 68 -25 c65 -24 67 -25 70 -61 2 -39 13 -56 50 -75 39 -21
74 -14 107 22 l32 33 69 -11 c65 -11 69 -13 77 -43 23 -88 146 -97 176 -14 8
23 14 25 85 26 60 1 77 -2 77 -13 0 -7 13 -27 29 -43 53 -52 131 -31 152 41
11 36 14 38 63 44 28 4 61 9 73 12 15 4 23 0 28 -15 8 -25 53 -51 88 -51 39 0
87 51 87 92 0 32 2 34 71 60 55 21 71 23 75 13 8 -20 67 -45 95 -40 13 2 36
18 51 34 21 24 26 37 23 68 -4 38 -2 40 53 73 74 45 69 44 88 26 8 -9 23 -16
32 -17 9 0 25 -2 35 -4 47 -9 103 86 78 133 -9 18 -4 27 44 71 54 49 56 50 88
37 84 -34 162 60 111 132 -15 22 -14 26 27 80 23 31 43 58 44 59 1 2 15 -1 31
-6 84 -24 149 69 100 142 l-23 33 31 65 c24 49 36 64 51 62 96 -10 147 99 78
163 l-26 24 18 69 c18 68 19 69 56 75 43 7 79 45 79 83 0 35 -25 77 -53 90
-22 11 -25 17 -22 55 2 24 4 57 4 75 1 27 6 32 31 38 33 7 70 52 70 85 0 38
-28 78 -65 91 -31 12 -35 17 -35 49 0 19 -3 52 -6 72 -6 34 -4 39 19 47 93 36
64 173 -38 176 -16 0 -24 13 -39 74 -19 70 -19 74 -2 83 28 16 45 66 35 102
-12 42 -44 66 -88 66 -35 0 -38 3 -69 66 -30 61 -32 68 -17 84 29 32 35 75 15
108 -25 41 -54 55 -99 47 -37 -6 -39 -5 -81 51 -38 50 -41 60 -31 77 22 35 20
83 -4 113 -19 23 -30 28 -66 28 -24 0 -51 -3 -59 -7 -11 -5 -32 8 -70 41 -44
39 -52 52 -45 68 38 87 -64 174 -136 115 -25 -20 -23 -21 -109 34 -37 24 -46
34 -40 49 11 32 -1 65 -32 91 -38 32 -78 32 -117 -1 l-31 -26 -67 26 c-67 25
-68 27 -69 63 -1 47 -40 83 -91 83 -27 0 -43 -8 -67 -33 l-31 -33 -58 12 c-32
6 -60 12 -62 13 -3 0 -9 1 -14 1 -5 0 -11 13 -14 29 -7 31 -38 66 -66 74 -34
8 -85 -17 -106 -53 -20 -34 -21 -35 -82 -33 -35 1 -68 2 -74 2 -5 1 -15 14
-20 30 -9 26 -29 41 -70 54 -8 3 -29 -1 -46 -8z"/>
</g>
</svg>
